<?xml version="1.0" encoding="utf-8"?>
<!-- Generator: Adobe Illustrator 18.1.0, SVG Export Plug-In . SVG Version: 6.00 Build 0)  -->
<svg version="1.1" id="GraphicRiver" xmlns="http://www.w3.org/2000/svg" xmlns:xlink="http://www.w3.org/1999/xlink" x="0px"
	 y="0px" viewBox="0 0 94.5 101.8" enable-background="new 0 0 94.5 101.8" xml:space="preserve">
<g>
	<g>
		<path fill="#333132" stroke="#000000" stroke-miterlimit="10" d="M93.2,61.8c0,1.4-1.1,2.5-2.5,2.5h-61c-1.4,0-2.5-1.1-2.5-2.5V5
			c0-1.4,1.1-2.5,2.5-2.5h61c1.4,0,2.5,1.1,2.5,2.5V61.8z"/>
		<path fill="none" stroke="#000000" d="M93.2,61.8c0,1.4-1.1,2.5-2.5,2.5h-61c-1.4,0-2.5-1.1-2.5-2.5V5c0-1.4,1.1-2.5,2.5-2.5h61
			c1.4,0,2.5,1.1,2.5,2.5V61.8z"/>
	</g>
	<g>
		<defs>
			<path id="SVGID_1_" d="M-6.9,98.1c0,3.9,3.1,7.1,6.9,7.1h85.4c3.8,0,6.9-3.2,6.9-7.1V10.6c0-3.9-3.1-7.1-6.9-7.1H0
				c-3.8,0-6.9,3.2-6.9,7.1V98.1z"/>
		</defs>
		<clipPath id="SVGID_2_">
			<use xlink:href="#SVGID_1_"  overflow="visible"/>
		</clipPath>
		<g clip-path="url(#SVGID_2_)">
			
				<linearGradient id="SVGID_3_" gradientUnits="userSpaceOnUse" x1="-1692.9641" y1="232.3796" x2="-1675.4635" y2="232.3796" gradientTransform="matrix(-0.9921 0.1251 0.1251 0.9921 -1632.6213 -4.1193)">
				<stop  offset="0" style="stop-color:#005E9C"/>
				<stop  offset="6.926896e-002" style="stop-color:#0D76B2"/>
				<stop  offset="0.1555" style="stop-color:#188CC6"/>
				<stop  offset="0.2498" style="stop-color:#219CD5"/>
				<stop  offset="0.357" style="stop-color:#25A5DD"/>
				<stop  offset="0.5055" style="stop-color:#27A8E0"/>
				<stop  offset="0.5821" style="stop-color:#2BA9E1"/>
				<stop  offset="0.6503" style="stop-color:#35AEE2"/>
				<stop  offset="0.7154" style="stop-color:#48B5E5"/>
				<stop  offset="0.7785" style="stop-color:#61BFE8"/>
				<stop  offset="0.8403" style="stop-color:#82CDED"/>
				<stop  offset="0.9009" style="stop-color:#ABDDF3"/>
				<stop  offset="0.9597" style="stop-color:#DAF0FA"/>
				<stop  offset="1" style="stop-color:#FFFFFF"/>
			</linearGradient>
			<path fill="url(#SVGID_3_)" d="M74.8,4.7L58.7,9l0.4,3.5l-0.5,3.8l0.5,4l0.4,3.5l0.9,2.9C60.4,26.7,75.3,21,74.8,4.7z"/>
			<path d="M55.6,16.3l0,0.4l0.5,4l0.4,3.5l0,0.2l0.1,0.2l0.9,2.9l0.9,3.1l3-1.1c5.8-2.2,16.8-10.3,16.3-24.9l-0.1-3.8l-3.6,1
				L57.9,6.1l-2.5,0.7l0.3,2.6l0.4,3.1l-0.5,3.5L55.6,16.3z M58.6,16.3l0.5-3.8L58.7,9l16.1-4.3c0.5,16.3-14.4,22-14.4,22l-0.9-2.9
				l-0.4-3.5L58.6,16.3z"/>
			<linearGradient id="SVGID_4_" gradientUnits="userSpaceOnUse" x1="5.3868" y1="46.228" x2="112.7251" y2="46.228">
				<stop  offset="0" style="stop-color:#27A8E0"/>
				<stop  offset="0.2516" style="stop-color:#25A4DD"/>
				<stop  offset="0.4757" style="stop-color:#1F9AD3"/>
				<stop  offset="0.6893" style="stop-color:#1687C2"/>
				<stop  offset="0.8953" style="stop-color:#086EAB"/>
				<stop  offset="1" style="stop-color:#005E9C"/>
			</linearGradient>
			<path fill="url(#SVGID_4_)" stroke="#000000" stroke-width="3" d="M83.7-1.8c0,0-20.7,8-31.7,38S28.8,70.3,5.4,59.1
				c0,0-1,18.8,26,16.5c0,0-1.3,14.7,6,23c0,0,5.7-6.3,10.3-29c0,0,33-12.3,41.3-35.7c8.3-23.3,23.7-22,23.7-22S99.4-16.8,83.7-1.8z
				"/>
			<radialGradient id="SVGID_5_" cx="82.5746" cy="3.3737" r="24.3279" gradientUnits="userSpaceOnUse">
				<stop  offset="0" style="stop-color:#121212"/>
				<stop  offset="1" style="stop-color:#000000"/>
			</radialGradient>
			<path opacity="0.33" fill="url(#SVGID_5_)" d="M80.8-0.3c-1.9,1.1-4.6,2.8-7.7,5.3c4.7-0.4,18.5,0.2,19.6,20.7c0,0,0,0,0,0.1
				c1.5-2.7,3.1-4.8,4.8-6.6C98.4,7.9,95.8-6.7,80.8-0.3z"/>
			<path d="M82.7,5.6c0,0,0.2,33.7,7.5,17.7C90.2,23.2,85.2,29.2,82.7,5.6z"/>
			<path fill="#FFFFFF" d="M41.1,63.1c0,0,4,14.8-3.3,29c0,0-5-9.8-3.3-20.3c0,0-17.3,2.5-22.5-5.3C12.1,66.6,32.6,75.3,41.1,63.1z"
				/>
			<path fill="#FFFFFF" d="M72.4,9.4c0,0-14.2,11-22.5,41.8C49.9,51.2,64.6,14.9,72.4,9.4z"/>
		</g>
	</g>
</g>
</svg>
