<?xml version="1.0" encoding="utf-8"?>
<!-- Generator: Adobe Illustrator 18.1.0, SVG Export Plug-In . SVG Version: 6.00 Build 0)  -->
<svg version="1.1" id="Layer_1" xmlns="http://www.w3.org/2000/svg" xmlns:xlink="http://www.w3.org/1999/xlink" x="0px" y="0px"
	 viewBox="0 0 78.6 80.1" enable-background="new 0 0 78.6 80.1" xml:space="preserve">
<g>
	<g>
		<path fill="#333132" stroke="#000000" stroke-miterlimit="10" d="M68.3,61.2c0,1.4-1.1,2.5-2.5,2.5h-61c-1.4,0-2.5-1.1-2.5-2.5
			V4.5c0-1.4,1.1-2.5,2.5-2.5h61c1.4,0,2.5,1.1,2.5,2.5V61.2z"/>
		<path fill="none" stroke="#000000" d="M68.3,61.2c0,1.4-1.1,2.5-2.5,2.5h-61c-1.4,0-2.5-1.1-2.5-2.5V4.5c0-1.4,1.1-2.5,2.5-2.5h61
			c1.4,0,2.5,1.1,2.5,2.5V61.2z"/>
	</g>
	<g>
		<defs>
			<path id="SVGID_1_" d="M82.5,74.6c0,3-2.5,5.5-5.6,5.5H8.3c-3.1,0-5.6-2.5-5.6-5.5V6.5c0-3,2.5-5.5,5.6-5.5h68.6
				c3.1,0,5.6,2.5,5.6,5.5V74.6z"/>
		</defs>
		<clipPath id="SVGID_2_">
			<use xlink:href="#SVGID_1_"  overflow="visible"/>
		</clipPath>
		<g clip-path="url(#SVGID_2_)">
			<g>
				
					<linearGradient id="SVGID_3_" gradientUnits="userSpaceOnUse" x1="-217.8333" y1="248.3667" x2="-253.4453" y2="272.6475" gradientTransform="matrix(5.530000e-002 -0.9985 0.9985 5.530000e-002 -216.0463 -207.3645)">
					<stop  offset="0" style="stop-color:#F48020"/>
					<stop  offset="1" style="stop-color:#F79421"/>
				</linearGradient>
				<path fill="url(#SVGID_3_)" d="M-12.6,24.6c1.7-2.6,11-14.1,26.6-0.3c12,10.7,0.2,42.3,21.3,50C56.9,82,72.6,62.1,74.1,51.5
					c-14.7,11.7-27.4,10.1-35.7-7.9c-1.4-3.1-2.8-5.9-4.1-8.6c-0.7-1.4-1.3-2.6-2-3.9c-0.9-1.7-1.8-3.3-2.7-4.8
					C23.5,16.1,17.3,11.2,6.8,9.6C-8.3,7.3-17,18-18.5,22.5"/>
				<path d="M-10.8,25.8c0.3-0.5,3.5-5.2,8.9-5.9c4.4-0.6,9.2,1.4,14.4,6c4.4,4,5.2,11.7,6,20c1.2,12,2.5,25.5,16,30.4
					c11.1,4,20,0.9,25.5-2.4c9.4-5.6,15.2-15.4,16.2-22.1c0.1-0.9-0.3-1.8-1.1-2.2c-0.8-0.4-1.7-0.4-2.4,0.2c-7.2,5.7-13.6,8-19,6.7
					c-5.2-1.3-9.7-5.9-13.3-13.7c-1.6-3.5-2.9-6.2-4.1-8.6c-0.7-1.4-1.4-2.7-2-3.9c-1-1.8-1.9-3.4-2.8-4.9C24.8,14.1,18,9.1,7.1,7.5
					c-15.4-2.4-25.6,8.2-27.7,14.4l0,0c-0.4,1.1,0.2,2.4,1.4,2.7c1.1,0.4,2.4-0.2,2.8-1.4l0,0c1.2-3.8,9-13.6,22.9-11.4
					c9.5,1.5,15.3,5.7,21.4,15.7c0.9,1.4,1.7,2.9,2.7,4.7c0.6,1.2,1.3,2.4,2,3.8c1.2,2.4,2.5,5.1,4,8.5c4.2,9.1,9.6,14.6,16.2,16.1
					c6.8,1.6,14.4-0.9,22.7-7.5c-0.7,0.6-1.7,0.6-2.4,0.2c-0.8-0.4-1.2-1.3-1.1-2.2c-0.8,5.6-6,14.1-14.1,19
					c-4.7,2.8-12.3,5.5-21.8,2c-10.9-3.9-12-15-13.1-26.7c-0.9-9.1-1.8-17.7-7.5-22.8c-6.2-5.5-12.2-7.9-17.9-7.1
					c-7.2,1-11.2,6.7-12,7.8l0,0c-0.7,1-0.4,2.4,0.6,3C-12.8,27.1-11.5,26.8-10.8,25.8L-10.8,25.8z"/>
			</g>
			
				<linearGradient id="SVGID_4_" gradientUnits="userSpaceOnUse" x1="-230.6674" y1="257.0033" x2="-247.4655" y2="257.0033" gradientTransform="matrix(5.530000e-002 -0.9985 0.9985 5.530000e-002 -216.0466 -207.3645)">
				<stop  offset="0" style="stop-color:#F48020"/>
				<stop  offset="1" style="stop-color:#F5A81F"/>
			</linearGradient>
			<path fill="url(#SVGID_4_)" d="M-12.6,24.6c1.7-2.6,11-14.1,26.6-0.3c12,10.7,0.2,42.3,21.3,50C56.9,82,72.6,62.1,74.1,51.5
				c-14.7,11.7-27.4,10.1-35.7-7.9c-1.4-3.1-2.8-5.9-4.1-8.6c-0.7-1.4-1.3-2.6-2-3.9c-0.9-1.7-1.8-3.3-2.7-4.8
				C23.5,16.1,17.3,11.2,6.8,9.6C-8.3,7.3-17,18-18.5,22.5"/>
			<path fill="#FFFFFF" d="M35.8,72.8c9.7,3.5,17.5,0.8,22.3-2.1c6.4-3.8,11-9.9,13.2-15.1c-2,1.3-4,2.3-6,3
				c-4.4,1.8-8.6,2.3-12.5,1.4c-4.8-1.1-8.9-4.4-12.4-9.7c-0.3,5.4,3.2,11.6-5.6,9.9c-9-1.8-7.1,2.6-6.7,7
				C30,69.7,32.5,71.6,35.8,72.8z"/>
		</g>
	</g>
</g>
</svg>
