<?xml version="1.0" encoding="utf-8"?>
<!-- Generator: Adobe Illustrator 18.1.0, SVG Export Plug-In . SVG Version: 6.00 Build 0)  -->
<svg version="1.1" id="ThemeForest" xmlns="http://www.w3.org/2000/svg" xmlns:xlink="http://www.w3.org/1999/xlink" x="0px"
	 y="0px" viewBox="0 0 91 70.7" enable-background="new 0 0 91 70.7" xml:space="preserve">
<g>
	<g>
		<path fill="#333132" stroke="#000000" stroke-miterlimit="10" d="M69.5,62.8c0,1.4-1.1,2.5-2.5,2.5H6c-1.4,0-2.5-1.1-2.5-2.5V6
			c0-1.4,1.1-2.5,2.5-2.5h61c1.4,0,2.5,1.1,2.5,2.5V62.8z"/>
		<path fill="none" stroke="#000000" d="M69.5,62.8c0,1.4-1.1,2.5-2.5,2.5H6c-1.4,0-2.5-1.1-2.5-2.5V6c0-1.4,1.1-2.5,2.5-2.5h61
			c1.4,0,2.5,1.1,2.5,2.5V62.8z"/>
	</g>
	<g>
		<defs>
			<path id="SVGID_1_" d="M95.6,32.2c-2-16-21-11.3-10.3-6.7c10.1,4.4-14.1,9.4-16.9,9.9V5.4c0-3-1.9-5.4-4.3-5.4H10.9
				C8.6,0,6.6,2.4,6.6,5.4v67c0,3,1.9,5.4,4.3,5.4H64c0.8,0,1.6-0.3,2.2-0.8c6.8,1.3,17.4,3.2,21,2.4c5.3-1.2,9.7-10,9.7-10.7
				S97.6,48.2,95.6,32.2z"/>
		</defs>
		<clipPath id="SVGID_2_">
			<use xlink:href="#SVGID_1_"  overflow="visible"/>
		</clipPath>
		<g clip-path="url(#SVGID_2_)">
			<path fill="#FFFFFF" d="M84.1,38.7c0,0,3.7,0.3,4.2,1.7c0.5,1.3-3.2,2.5-3.2,2.5L84.1,38.7z"/>
			<path d="M90.1,39.7c-0.8-2.2-4-2.8-5.9-3l-2.1,2.5l1,4.2l2.5,1.4c1.3-0.4,3.5-1.3,4.3-2.9C90.4,41.2,90.4,40.4,90.1,39.7z
				 M85.1,42.9l-1-4.2c0,0,3.7,0.3,4.2,1.7C88.8,41.7,85.1,42.9,85.1,42.9z"/>
			<path fill="#FFFFFF" d="M82.9,47.5c0,0,3,0.3,3.4,1.4c0.4,1.1-2.6,2-2.6,2L82.9,47.5z"/>
			<path d="M87.8,48.3c-0.7-1.8-3.3-2.3-4.8-2.4l-1.7,2l0.8,3.4l2.1,1.2c1-0.3,2.9-1.1,3.5-2.4C88,49.5,88,48.9,87.8,48.3z
				 M83.7,50.9l-0.8-3.4c0,0,3,0.3,3.4,1.4C86.7,50,83.7,50.9,83.7,50.9z"/>
			<path fill="#FFFFFF" d="M81.3,54.2c0,0,2.5,0.2,2.8,1.1C84.4,56.2,82,57,82,57L81.3,54.2z"/>
			<path d="M85.3,54.9c-0.6-1.5-2.7-1.9-3.9-2L80,54.5l0.7,2.8l1.7,1c0.9-0.3,2.4-0.9,2.9-2C85.5,55.9,85.5,55.4,85.3,54.9z M82,57
				l-0.7-2.8c0,0,2.5,0.2,2.8,1.1C84.4,56.2,82,57,82,57z"/>
			<path d="M83.7,59.7c-0.6-1.5-2.7-1.9-3.9-2l-1.4,1.7l0.7,2.8l1.7,1c0.9-0.3,2.4-0.9,2.9-2C83.8,60.7,83.8,60.2,83.7,59.7z
				 M80.3,61.9l-0.7-2.8c0,0,2.5,0.2,2.8,1.1S80.3,61.9,80.3,61.9z"/>
			<linearGradient id="SVGID_3_" gradientUnits="userSpaceOnUse" x1="30.2281" y1="38.4249" x2="84.4503" y2="38.4249">
				<stop  offset="0" style="stop-color:#B68450"/>
				<stop  offset="0.1274" style="stop-color:#AA7946"/>
				<stop  offset="0.4499" style="stop-color:#936432"/>
				<stop  offset="0.7491" style="stop-color:#845726"/>
				<stop  offset="1" style="stop-color:#7F5222"/>
			</linearGradient>
			<path fill="url(#SVGID_3_)" d="M63,37.8c0,0,16.1-3,19.8,1s-0.4,5.9-0.4,5.9s2.5,4.4-1.3,7.9c0,0,1.5,3.3-1,5.5
				c0,0,0.8,3.5-10.8,5.5s-43.8,9-38.8-16.3S62.8,11,68.3,11v25.7l2.4,0.6L63,37.8z"/>
			<radialGradient id="SVGID_4_" cx="65.229" cy="13.4784" r="21.2452" gradientUnits="userSpaceOnUse">
				<stop  offset="0" style="stop-color:#121212"/>
				<stop  offset="1" style="stop-color:#000000"/>
			</radialGradient>
			<path opacity="0.42" fill="url(#SVGID_4_)" d="M61.3,11l5.3,25.2l3.3-0.5C69.8,35.7,77.5-2.3,61.3,11z"/>
			<path d="M84.7,36.7c-1.5-1.6-3.9-2.4-7.7-2.4c-1.4,0-2.9,0.1-4.8,0.3V11l-4-4c-7.8,0-36,12.3-41.4,39.5c-1.4,6.9-0.4,12.5,3,16.5
				c3.8,4.6,10.3,6.9,19.6,6.9c7,0,14.3-1.3,19.1-2.2l1.8-0.3c6.8-1.2,10-2.7,11.9-5.6c0.4-0.6,0.5-2.2,0.6-2.8
				c1.6-2.1,1.7-4.3,1.5-6.3c1.2-1.8,1.5-3.5,1.4-4.8c-0.1-0.8-0.6-1.6-0.1-2.1c0.5-0.8,1.3-1.7,1.4-2.9
				C87,41.4,87.1,39.3,84.7,36.7z M82.5,44.6c0,0,2.5,4.4-1.3,7.9c0,0,1.5,3.3-1,5.5c0,0,0.8,3.5-10.8,5.5s-43.8,9-38.8-16.3
				S62.8,11,68.3,11v25.7l-5.2,1c7.4-1.4,17.5-1,19.2,0.8C86,42.6,82.5,44.6,82.5,44.6z"/>
			<path d="M68.8,37c0,0-12.1,1.4-22.5,4.4c0,0,7.1-4,24.9-6.5L68.8,37z"/>
			<path d="M61.5,37c0,0-9-1.5-13.1-0.3l9,1.5L61.5,37z"/>
			<polygon points="81.1,58.1 76.8,58.2 82.8,56.5 			"/>
			<polygon points="81.8,52.6 76.1,53.3 82.6,54 			"/>
			<polygon points="83.4,45.7 76.6,45 85,43.7 			"/>
			<path opacity="0.17" fill="#FFFFFF" d="M80.3,58.2c-0.3-0.3-0.5-0.4-0.5-0.4s-10,5-33.2,6C28.5,64.5,31.2,47,33.3,39
				c-1.1,2.5-2,5.3-2.6,8.2c-5,25.3,27.2,18.3,38.8,16.3C79.2,61.8,80.2,59,80.3,58.2z"/>
		</g>
	</g>
</g>
</svg>
